<svg width="30" height="23" viewBox="0 0 30 23" fill="none" xmlns="http://www.w3.org/2000/svg">
<path fill-rule="evenodd" clip-rule="evenodd" d="M25.7274 6.96495C25.7274 6.69663 25.4832 6.47912 25.1819 6.47912C24.8807 6.47912 24.6365 6.69663 24.6365 6.96495V9.39412L21.9092 9.39412C21.608 9.39412 21.3638 9.61164 21.3638 9.87995C21.3638 10.1483 21.608 10.3658 21.9092 10.3658L24.6365 10.3658V12.795C24.6365 13.0633 24.8807 13.2808 25.1819 13.2808C25.4832 13.2808 25.7274 13.0633 25.7274 12.795V10.3658L28.4547 10.3658C28.7559 10.3658 29.0001 10.1483 29.0001 9.87995C29.0001 9.61164 28.7559 9.39412 28.4547 9.39412L25.7274 9.39412V6.96495Z" fill="#3737EC"/>
<path d="M24.6365 9.39412V9.49412H24.7365V9.39412H24.6365ZM21.9092 9.39412V9.29412V9.39412ZM21.9092 10.3658V10.2658V10.3658ZM24.6365 10.3658H24.7365V10.2658H24.6365V10.3658ZM25.7274 10.3658V10.2658H25.6274V10.3658H25.7274ZM28.4547 10.3658V10.4658V10.3658ZM28.4547 9.39412V9.49412V9.39412ZM25.7274 9.39412H25.6274V9.49412H25.7274V9.39412ZM25.1819 6.57912C25.4392 6.57912 25.6274 6.76243 25.6274 6.96495H25.8274C25.8274 6.63084 25.5272 6.37912 25.1819 6.37912V6.57912ZM24.7365 6.96495C24.7365 6.76243 24.9247 6.57912 25.1819 6.57912V6.37912C24.8367 6.37912 24.5365 6.63084 24.5365 6.96495H24.7365ZM24.7365 9.39412V6.96495H24.5365V9.39412H24.7365ZM21.9092 9.49412L24.6365 9.49412V9.29412L21.9092 9.29412V9.49412ZM21.4638 9.87995C21.4638 9.67743 21.652 9.49412 21.9092 9.49412V9.29412C21.5639 9.29412 21.2638 9.54584 21.2638 9.87995H21.4638ZM21.9092 10.2658C21.652 10.2658 21.4638 10.0825 21.4638 9.87995H21.2638C21.2638 10.2141 21.5639 10.4658 21.9092 10.4658V10.2658ZM24.6365 10.2658L21.9092 10.2658V10.4658L24.6365 10.4658V10.2658ZM24.7365 12.795V10.3658H24.5365V12.795H24.7365ZM25.1819 13.1808C24.9247 13.1808 24.7365 12.9975 24.7365 12.795H24.5365C24.5365 13.1291 24.8367 13.3808 25.1819 13.3808V13.1808ZM25.6274 12.795C25.6274 12.9975 25.4392 13.1808 25.1819 13.1808V13.3808C25.5272 13.3808 25.8274 13.1291 25.8274 12.795H25.6274ZM25.6274 10.3658V12.795H25.8274V10.3658H25.6274ZM28.4547 10.2658L25.7274 10.2658V10.4658L28.4547 10.4658V10.2658ZM28.9001 9.87995C28.9001 10.0825 28.7119 10.2658 28.4547 10.2658V10.4658C28.8 10.4658 29.1001 10.2141 29.1001 9.87995H28.9001ZM28.4547 9.49412C28.7119 9.49412 28.9001 9.67743 28.9001 9.87995H29.1001C29.1001 9.54584 28.8 9.29412 28.4547 9.29412V9.49412ZM25.7274 9.49412L28.4547 9.49412V9.29412L25.7274 9.29412V9.49412ZM25.6274 6.96495V9.39412H25.8274V6.96495H25.6274Z" fill="#3737EC"/>
<path fill-rule="evenodd" clip-rule="evenodd" d="M16.9574 14.8164C14.6079 13.6624 11.645 13.5192 9.62773 13.7508L9.60769 13.7531H9.5875C6.02729 13.7531 3.99573 15.1188 2.87509 16.8031C1.74069 18.508 1.52277 20.5682 1.67632 21.9436L1.04669 22C0.883857 20.5414 1.10888 18.3505 2.33154 16.5129C3.56576 14.6579 5.79961 13.1915 9.56731 13.1863C11.6628 12.9488 14.7626 13.092 17.2616 14.3194C18.521 14.9379 19.6318 15.8342 20.3762 17.0969C21.1203 18.3594 21.4866 19.9684 21.2925 21.996L20.6621 21.9476C20.8477 20.0075 20.4942 18.511 19.8166 17.3616C19.1392 16.2123 18.1263 15.3905 16.9574 14.8164Z" stroke="#3737EC"/>
<path fill-rule="evenodd" clip-rule="evenodd" d="M11.4405 10.6357C14.2363 10.6357 16.5027 8.60555 16.5027 6.10125C16.5027 3.59695 14.2363 1.56681 11.4405 1.56681C8.64477 1.56681 6.37837 3.59695 6.37837 6.10125C6.37837 8.60555 8.64477 10.6357 11.4405 10.6357ZM11.4405 11.2025C14.5857 11.2025 17.1354 8.91859 17.1354 6.10125C17.1354 3.28391 14.5857 1 11.4405 1C8.29531 1 5.74561 3.28391 5.74561 6.10125C5.74561 8.91859 8.29531 11.2025 11.4405 11.2025Z" stroke="#3737EC"/>
</svg>
