<svg width="21" height="24" viewBox="0 0 21 24" fill="none" xmlns="http://www.w3.org/2000/svg">
<path fill-rule="evenodd" clip-rule="evenodd" d="M1.90918 7L2.70568 20.5503C2.80454 22.2322 4.19727 23.5455 5.88202 23.5455H15.3831C17.0919 23.5455 18.4955 22.1957 18.5624 20.4882L19.091 7H1.90918ZM3.25892 8.27273L3.97621 20.4757C4.03553 21.4848 4.87117 22.2727 5.88202 22.2727H15.3831C16.4083 22.2727 17.2505 21.4629 17.2907 20.4384L17.7674 8.27273H3.25892Z" fill="#3737EC"/>
<path fill-rule="evenodd" clip-rule="evenodd" d="M-5.56327e-08 5.72728C-2.49076e-08 5.37582 0.28491 5.09091 0.636364 5.09091L20.3636 5.09091C20.7151 5.09091 21 5.37582 21 5.72728C21 6.07873 20.7151 6.36364 20.3636 6.36364L0.636364 6.36364C0.28491 6.36364 -8.63578e-08 6.07873 -5.56327e-08 5.72728Z" fill="#3737EC"/>
<path fill-rule="evenodd" clip-rule="evenodd" d="M15.9092 1.27273H5.091C4.03664 1.27273 3.18191 2.12746 3.18191 3.18182H17.8183C17.8183 2.12746 16.9635 1.27273 15.9092 1.27273ZM5.091 0C3.33373 0 1.90918 1.42455 1.90918 3.18182V4.45455H19.091V3.18182C19.091 1.42455 17.6665 0 15.9092 0H5.091Z" fill="#3737EC"/>
</svg>
