<svg width="21" height="24" viewBox="0 0 21 24" fill="none" xmlns="http://www.w3.org/2000/svg">
<path fill-rule="evenodd" clip-rule="evenodd" d="M0 1.85885C0 0.832237 0.909872 0 2.03226 0H12.9758L21 7.80956V21.6866C21 22.7132 20.0901 23.5455 18.9677 23.5455H2.03226C0.909873 23.5455 0 22.7132 0 21.6866V1.85885ZM2.03226 1.23923C1.65813 1.23923 1.35484 1.51665 1.35484 1.85885V21.6866C1.35484 22.0288 1.65813 22.3062 2.03226 22.3062H18.9677C19.3419 22.3062 19.6452 22.0288 19.6452 21.6866V8.67464H14.0376C12.9152 8.67464 12.0054 7.84241 12.0054 6.81579V1.23923H2.03226ZM13.3602 2.18368L18.7563 7.43541H14.0376C13.6635 7.43541 13.3602 7.158 13.3602 6.81579V2.18368Z" fill="#3737EC"/>
<path fill-rule="evenodd" clip-rule="evenodd" d="M15.6287 15.0834L11.3177 19.0266C11.0531 19.2686 10.6242 19.2686 10.3597 19.0266L6.04858 15.0834C5.78403 14.8415 5.78403 14.4491 6.04858 14.2072C6.31313 13.9652 6.74205 13.9652 7.0066 14.2072L10.1612 17.0926L10.1612 9.29425C10.1612 8.95205 10.4645 8.67464 10.8387 8.67464C11.2128 8.67464 11.5161 8.95205 11.5161 9.29425L11.5161 17.0926L14.6707 14.2072C14.9353 13.9652 15.3642 13.9652 15.6287 14.2072C15.8933 14.4491 15.8933 14.8415 15.6287 15.0834Z" fill="#3737EC"/>
</svg>
