<svg width="28" height="28" viewBox="0 0 28 28" fill="none" xmlns="http://www.w3.org/2000/svg">
<path fill-rule="evenodd" clip-rule="evenodd" d="M21.462 2.68565C21.156 2.37304 20.654 2.36951 20.3437 2.67778L2.0203 20.8794C1.8714 21.0274 1.78767 21.2285 1.78767 21.4384V26.2122H7.51516C7.73102 26.2122 7.93742 26.1236 8.08616 25.9671L25.3814 7.77615C25.6736 7.4688 25.6701 6.98527 25.3735 6.68218L21.462 2.68565ZM19.2332 1.55984C20.1642 0.635037 21.6703 0.645639 22.5882 1.58347L26.4996 5.58C27.3896 6.48927 27.4001 7.93984 26.5234 8.86191L9.22815 27.0529C8.78195 27.5222 8.16273 27.7879 7.51516 27.7879H1.78767C0.917406 27.7879 0.211914 27.0824 0.211914 26.2122V21.4384C0.211914 20.8088 0.463107 20.2052 0.909786 19.7615L19.2332 1.55984Z" fill="#3737EC"/>
</svg>
