<svg width="138" height="37" viewBox="0 0 138 37" fill="none" xmlns="http://www.w3.org/2000/svg">
<g clip-path="url(#clip0_89_3354)">
<path d="M71.279 9.91541V15.4321C71.279 15.5029 71.2652 15.573 71.2383 15.6383C71.2115 15.7037 71.1721 15.7631 71.1226 15.8131C71.073 15.8632 71.0142 15.9029 70.9493 15.93C70.8846 15.957 70.8151 15.971 70.745 15.971C70.6749 15.971 70.6055 15.957 70.5406 15.93C70.4759 15.9029 70.417 15.8632 70.3674 15.8131C70.3178 15.7631 70.2784 15.7037 70.2516 15.6383C70.2248 15.573 70.211 15.5029 70.211 15.4321V2.00231C70.2099 1.86156 70.2366 1.72199 70.2895 1.59174C70.3424 1.46149 70.4205 1.34316 70.5191 1.24363C70.6177 1.1441 70.735 1.06535 70.8641 1.01198C70.9932 0.958609 71.1315 0.931675 71.2711 0.932746H74.0288C75.4524 0.819279 76.8684 1.23074 78.014 2.09077C78.4688 2.50495 78.8253 3.01711 79.0571 3.58929C79.2889 4.16147 79.39 4.77896 79.353 5.39595C79.358 6.02957 79.2303 6.6571 78.9784 7.23753C78.7405 7.78729 78.3838 8.27638 77.9342 8.66897C77.444 9.08566 76.8783 9.40247 76.2685 9.60183C75.5533 9.83645 74.8046 9.95057 74.0527 9.93956L71.279 9.91541ZM71.279 9.04694H74.0288C74.6302 9.0554 75.2286 8.96021 75.7982 8.76547C76.2888 8.59077 76.739 8.31715 77.1213 7.9613C77.4642 7.63881 77.7358 7.24695 77.9183 6.81132C78.1184 6.35287 78.2189 5.85659 78.2132 5.35575C78.246 4.87076 78.1739 4.38438 78.0019 3.93031C77.8298 3.47625 77.562 3.06534 77.2169 2.72607C76.302 2.03443 75.1685 1.70281 74.0288 1.79322H71.6377C71.5847 1.79215 71.532 1.80176 71.4827 1.82149C71.4335 1.84122 71.3886 1.87066 71.3507 1.90811C71.3128 1.94556 71.2828 1.99024 71.2623 2.03955C71.2417 2.08887 71.2312 2.14182 71.2312 2.19532L71.279 9.04694Z" fill="#1D1D1D"/>
<path d="M93.588 6.71475C93.5689 6.76057 93.5367 6.79958 93.4955 6.8268C93.4543 6.85403 93.4061 6.86822 93.3568 6.86755C93.2451 6.85173 93.1401 6.80433 93.0539 6.73084C92.8975 6.62262 92.7352 6.52329 92.5677 6.43329C92.3343 6.30857 92.0885 6.20885 91.8345 6.13574C91.4868 6.03853 91.1271 5.99248 90.7664 5.99904C90.4114 5.9949 90.0583 6.05201 89.7223 6.16791C89.4332 6.26768 89.1636 6.41733 88.9253 6.61021C88.6997 6.7773 88.5122 6.99118 88.3753 7.23748C88.2519 7.48711 88.1891 7.76273 88.192 8.04165C88.1873 8.33067 88.277 8.61322 88.447 8.84584C88.6302 9.0741 88.8547 9.26513 89.1086 9.40876C89.4052 9.57405 89.7177 9.70876 90.0411 9.81084L91.1092 10.1486C91.4758 10.2612 91.8345 10.3899 92.1772 10.5266C92.5094 10.6553 92.8231 10.8284 93.1097 11.0413C93.3835 11.2425 93.6116 11.5002 93.7792 11.7972C93.9537 12.1312 94.0389 12.5054 94.0263 12.8828C94.0307 13.3242 93.9468 13.7619 93.7792 14.1695C93.6209 14.5633 93.3756 14.9153 93.0619 15.1989C92.7283 15.5035 92.3382 15.7385 91.9141 15.8904C91.4023 16.0714 90.8624 16.1586 90.3201 16.1478C89.6668 16.1646 89.0176 16.0413 88.4152 15.786C87.8913 15.5566 87.4069 15.2444 86.9805 14.8611L87.2196 14.4992C87.2512 14.4492 87.2917 14.4056 87.3392 14.3706C87.3919 14.3386 87.4533 14.3245 87.5145 14.3304C87.6441 14.3468 87.7647 14.4062 87.8572 14.4992C88.019 14.6351 88.1924 14.7561 88.3753 14.8611C88.6267 15.0136 88.8939 15.1377 89.1724 15.2311C89.5535 15.3532 89.9522 15.4102 90.352 15.3999C90.7501 15.4064 91.1464 15.3439 91.5236 15.215C91.8377 15.1085 92.1256 14.9357 92.3684 14.7083C92.5903 14.4994 92.7644 14.2441 92.8786 13.9604C92.9933 13.6714 93.0528 13.363 93.0539 13.0518C93.0643 12.737 92.975 12.427 92.7989 12.1671C92.6215 11.9247 92.3962 11.7221 92.1373 11.572C91.8412 11.4036 91.5287 11.2661 91.2048 11.1619L90.1288 10.8161C89.7622 10.7035 89.4035 10.5829 89.0528 10.4462C88.721 10.3199 88.4074 10.1495 88.1203 9.93957C87.8511 9.73548 87.6261 9.47827 87.4587 9.1836C87.2793 8.84819 87.1913 8.47081 87.2037 8.08991C87.2029 7.71465 87.2846 7.34389 87.4428 7.00426C87.6121 6.65575 87.8477 6.34425 88.1362 6.0875C88.4573 5.81009 88.8278 5.59719 89.2281 5.46023C89.7226 5.28905 90.2439 5.21002 90.7664 5.22702C91.347 5.21902 91.9243 5.31429 92.4721 5.50849C92.9761 5.70222 93.4388 5.99158 93.835 6.36092L93.588 6.71475Z" fill="#1D1D1D"/>
<path d="M104.531 1.75313C104.532 1.87484 104.508 1.99539 104.46 2.10696C104.406 2.21412 104.336 2.31189 104.253 2.39647C104.168 2.48228 104.068 2.55058 103.957 2.59752C103.845 2.65062 103.723 2.67815 103.599 2.67815C103.475 2.67815 103.352 2.65062 103.24 2.59752C103.128 2.55261 103.028 2.48404 102.945 2.39647C102.858 2.31602 102.791 2.21715 102.746 2.10696C102.695 1.99591 102.668 1.87539 102.666 1.75313C102.669 1.62579 102.696 1.50018 102.746 1.3832C102.792 1.26936 102.86 1.16561 102.945 1.07761C103.03 0.992718 103.13 0.924543 103.24 0.876567C103.354 0.82879 103.476 0.804192 103.599 0.804192C103.722 0.804192 103.843 0.82879 103.957 0.876567C104.066 0.926469 104.166 0.994432 104.253 1.07761C104.335 1.16952 104.405 1.27233 104.46 1.3832C104.507 1.50067 104.531 1.62629 104.531 1.75313ZM104.093 5.90271V15.4724C104.09 15.6054 104.037 15.7322 103.943 15.8255C103.849 15.9188 103.723 15.971 103.591 15.971C103.459 15.971 103.333 15.9188 103.238 15.8255C103.145 15.7322 103.091 15.6054 103.089 15.4724V5.90271C103.089 5.76834 103.142 5.63947 103.235 5.54446C103.33 5.44945 103.457 5.39607 103.591 5.39607C103.724 5.39607 103.852 5.44945 103.946 5.54446C104.04 5.63947 104.093 5.76834 104.093 5.90271Z" fill="#1D1D1D"/>
<path d="M120.624 6.81146L120.521 6.89993C120.479 6.91532 120.434 6.91532 120.393 6.89993C120.284 6.88299 120.184 6.83238 120.106 6.75517C119.949 6.63829 119.784 6.53344 119.611 6.44154C119.358 6.30844 119.09 6.20329 118.814 6.12791C118.454 6.02394 118.081 5.97514 117.707 5.98315C117.159 5.97873 116.617 6.08823 116.112 6.30483C115.653 6.51912 115.25 6.83851 114.933 7.23768C114.597 7.67294 114.348 8.17005 114.2 8.70129C114.027 9.33222 113.944 9.98474 113.953 10.6394C113.94 11.308 114.026 11.9748 114.208 12.6177C114.356 13.1441 114.605 13.636 114.941 14.0652C115.248 14.4525 115.641 14.7612 116.089 14.9658C116.56 15.1772 117.072 15.2815 117.587 15.2715C118.016 15.2834 118.445 15.2237 118.855 15.0945C119.15 14.997 119.434 14.8647 119.699 14.7005C119.883 14.5808 120.058 14.4492 120.225 14.3064C120.305 14.2122 120.415 14.1495 120.536 14.1295C120.577 14.127 120.617 14.1354 120.654 14.1537C120.69 14.1721 120.721 14.1998 120.743 14.2341L121.022 14.5719C120.846 14.7977 120.639 14.998 120.409 15.1669C120.149 15.3593 119.868 15.5211 119.572 15.6494C119.248 15.7849 118.911 15.8898 118.567 15.9631C118.195 16.0379 117.816 16.0756 117.435 16.0756C116.808 16.0815 116.187 15.9555 115.61 15.7057C115.061 15.4659 114.573 15.1028 114.184 14.6442C113.769 14.1418 113.455 13.5627 113.26 12.9393C113.026 12.1959 112.912 11.4192 112.925 10.6394C112.919 9.8901 113.026 9.14444 113.243 8.42787C113.432 7.79694 113.747 7.21145 114.168 6.70692C114.581 6.23897 115.093 5.87069 115.666 5.62932C116.303 5.35552 116.99 5.22122 117.683 5.23527C118.304 5.22502 118.921 5.33702 119.501 5.56498C120.013 5.76259 120.484 6.05739 120.887 6.43349L120.624 6.81146Z" fill="#1D1D1D"/>
<path d="M133.225 5.22714C133.917 5.22036 134.604 5.35722 135.242 5.62923C135.821 5.87454 136.336 6.25158 136.748 6.73095C137.169 7.23304 137.487 7.81557 137.681 8.44387C137.903 9.17311 138.01 9.93285 137.999 10.6955C138.011 11.4557 137.903 12.2129 137.681 12.9393C137.487 13.5675 137.169 14.1501 136.748 14.6522C136.336 15.129 135.821 15.5034 135.242 15.7458C133.946 16.2603 132.504 16.2603 131.208 15.7458C130.629 15.5034 130.114 15.129 129.702 14.6522C129.276 14.152 128.956 13.5691 128.762 12.9393C128.539 12.2129 128.432 11.4557 128.443 10.6955C128.433 9.93285 128.54 9.17311 128.762 8.44387C128.956 7.81404 129.276 7.23107 129.702 6.73095C130.114 6.25158 130.629 5.87454 131.208 5.62923C131.846 5.35722 132.533 5.22036 133.225 5.22714ZM133.225 15.3116C133.789 15.3255 134.349 15.2158 134.867 14.9899C135.325 14.7801 135.724 14.4598 136.03 14.0571C136.362 13.6265 136.602 13.1307 136.732 12.6015C136.896 11.9745 136.973 11.3277 136.964 10.6795C136.972 10.0339 136.894 9.39003 136.732 8.76554C136.601 8.23174 136.361 7.73087 136.03 7.29389C135.724 6.88894 135.325 6.56588 134.867 6.35299C134.347 6.13555 133.791 6.02361 133.229 6.02361C132.667 6.02361 132.11 6.13555 131.591 6.35299C131.129 6.56361 130.727 6.88697 130.42 7.29389C130.092 7.73444 129.851 8.23392 129.71 8.76554C129.544 9.38964 129.464 10.0335 129.471 10.6795C129.463 11.3281 129.543 11.9749 129.71 12.6015C129.85 13.1288 130.091 13.6233 130.42 14.0571C130.727 14.4617 131.13 14.7825 131.591 14.9899C132.108 15.2049 132.666 15.3036 133.225 15.2794V15.3116Z" fill="#1D1D1D"/>
<path d="M83.4176 35.9712H81.2019C80.9851 35.9801 80.7717 35.9149 80.5962 35.7863C80.4382 35.6689 80.3188 35.5064 80.2534 35.3198L79.3527 32.859C79.2821 32.6627 79.1531 32.4932 78.9833 32.3737C78.8135 32.2543 78.6113 32.1907 78.4043 32.1916H73.5343C73.3269 32.1924 73.1244 32.2566 72.9537 32.3758C72.783 32.4949 72.6519 32.6634 72.5779 32.859L71.6852 35.3198C71.6199 35.4976 71.5067 35.6536 71.3585 35.7701C71.1866 35.9075 70.9719 35.9788 70.7527 35.9712H68.5449L74.0285 21.882C74.1745 21.505 74.43 21.1812 74.7613 20.9531C75.0926 20.725 75.4845 20.6031 75.8856 20.6034H76.061C76.4622 20.6031 76.854 20.725 77.1854 20.9531C77.5167 21.1812 77.7721 21.505 77.9181 21.882L83.4176 35.9712ZM74.6502 30.165H77.2645C77.3897 30.1637 77.5127 30.1326 77.6237 30.0744C77.7348 30.0162 77.8306 29.9323 77.9035 29.8297C77.9765 29.7272 78.0245 29.6087 78.0437 29.4839C78.0628 29.3591 78.0525 29.2316 78.0137 29.1116L76.5472 25.0505C76.4596 24.8253 76.3718 24.5599 76.2682 24.2463C76.2527 24.1791 76.215 24.1193 76.1615 24.0765C76.108 24.0336 76.0417 24.0103 75.9733 24.0103C75.905 24.0103 75.8387 24.0336 75.7851 24.0765C75.7316 24.1193 75.694 24.1791 75.6785 24.2463C75.5827 24.5599 75.4871 24.8333 75.3995 25.0505L73.9329 29.0714C73.8864 29.193 73.8699 29.3243 73.8848 29.4538C73.8997 29.5833 73.9456 29.7072 74.0186 29.8148C74.0916 29.9224 74.1893 30.0105 74.3035 30.0716C74.4177 30.1326 74.5449 30.1646 74.6741 30.165H74.6502Z" fill="#1D1D1D"/>
<path d="M87.579 20.1769V35.971H84.9727V20.1769H87.579Z" fill="#1D1D1D"/>
<path d="M93.7076 21.8899C93.7074 22.1089 93.6612 22.3254 93.5721 22.5251C93.3921 22.9186 93.0741 23.2308 92.6794 23.4017C92.4724 23.489 92.2501 23.5328 92.0258 23.5303C91.8067 23.5336 91.5893 23.4897 91.3882 23.4017C91.194 23.3153 91.016 23.1955 90.8622 23.0479C90.716 22.8956 90.5973 22.7187 90.5115 22.5251C90.4224 22.3254 90.3762 22.1089 90.376 21.8899C90.3746 21.6628 90.4207 21.4381 90.5115 21.2304C90.5952 21.0309 90.714 20.8483 90.8622 20.6916C91.016 20.544 91.194 20.4242 91.3882 20.3377C91.5893 20.2498 91.8067 20.2059 92.0258 20.2091C92.2501 20.2068 92.4724 20.2505 92.6794 20.3377C92.8737 20.4242 93.0517 20.544 93.2055 20.6916C93.3586 20.8476 93.4828 21.0301 93.5721 21.2304C93.6629 21.4381 93.709 21.6628 93.7076 21.8899ZM93.317 25.1065V35.9711H90.7187V25.0663L93.317 25.1065Z" fill="#1D1D1D"/>
<path d="M104.73 35.9711H103.559C103.359 35.9793 103.16 35.9408 102.977 35.8586C102.819 35.7549 102.708 35.5933 102.666 35.4082L102.435 34.6041C102.156 34.8453 101.893 35.0705 101.638 35.2555C101.386 35.4367 101.12 35.5955 100.841 35.7299C100.555 35.8574 100.255 35.9517 99.9483 36.0113C99.6019 36.0783 99.2496 36.1106 98.8964 36.1078C98.467 36.1155 98.0385 36.0531 97.6293 35.9229C97.2607 35.8105 96.92 35.6183 96.6325 35.3599C96.3496 35.1061 96.1286 34.7895 95.987 34.4351C95.8235 34.0268 95.7448 33.5888 95.7559 33.1485C95.7577 32.7204 95.8675 32.2997 96.0747 31.9261C96.3403 31.4903 96.7068 31.126 97.143 30.8646C97.7625 30.4953 98.4342 30.2241 99.1358 30.0605C100.147 29.8285 101.183 29.7205 102.22 29.7388V29.1034C102.259 28.5303 102.097 27.9616 101.765 27.4951C101.597 27.3128 101.389 27.1707 101.159 27.0789C100.929 26.9871 100.682 26.948 100.435 26.9643C100.076 26.9576 99.7177 27.0092 99.3741 27.1171C99.1184 27.2023 98.8723 27.3156 98.6407 27.4549L98.0675 27.7846C97.8938 27.8872 97.695 27.9401 97.4933 27.9373C97.3321 27.9394 97.1729 27.8917 97.0387 27.8006C96.9142 27.7096 96.81 27.5915 96.7367 27.4549L96.258 26.6507C97.4807 25.5089 99.0952 24.8918 100.761 24.9297C101.34 24.9197 101.914 25.0263 102.451 25.2433C102.927 25.4391 103.357 25.7352 103.71 26.1119C104.067 26.4947 104.338 26.9498 104.507 27.4468C104.694 27.9924 104.786 28.5665 104.778 29.1436L104.73 35.9711ZM99.6694 34.3628C99.9184 34.3666 100.167 34.3395 100.411 34.2824C100.631 34.2355 100.845 34.1627 101.048 34.0652C101.253 33.9642 101.448 33.843 101.63 33.7034C101.827 33.548 102.014 33.3788 102.188 33.1967V31.3631C101.552 31.3535 100.918 31.4019 100.291 31.5079C99.8673 31.5751 99.4542 31.6996 99.0634 31.8778C98.8009 31.9892 98.5722 32.1697 98.4023 32.4006C98.2769 32.5942 98.2103 32.8207 98.2103 33.052C98.1939 33.2382 98.2209 33.4258 98.2904 33.5993C98.3599 33.7727 98.4689 33.927 98.6088 34.0492C98.9234 34.2571 99.294 34.3586 99.6694 34.3386V34.3628Z" fill="#1D1D1D"/>
<path d="M107.29 35.9711V25.0664H108.883C109.031 25.0557 109.179 25.0972 109.299 25.1838C109.42 25.2703 109.507 25.3966 109.545 25.5409L109.729 26.4014C109.942 26.1806 110.171 25.9763 110.414 25.7902C110.664 25.6036 110.93 25.442 111.211 25.3077C111.488 25.1712 111.779 25.0686 112.08 25.0021C112.411 24.9397 112.747 24.9153 113.084 24.9297C113.63 24.9155 114.174 25.0169 114.678 25.2273C115.118 25.4192 115.508 25.7109 115.818 26.0796C116.133 26.4662 116.368 26.9117 116.511 27.3905C116.676 27.9323 116.757 28.4965 116.75 29.0632V36.0033H114.144V29.0311C114.18 28.4782 114.019 27.9306 113.69 27.487C113.517 27.2947 113.303 27.1448 113.064 27.0486C112.825 26.9525 112.568 26.9126 112.311 26.9321C111.872 26.93 111.439 27.0377 111.052 27.2457C110.64 27.4521 110.263 27.7236 109.936 28.0499V35.939L107.29 35.9711Z" fill="#1D1D1D"/>
<path d="M127.088 26.1518C127.089 26.3332 127.056 26.5131 126.992 26.6826C126.932 26.8393 126.85 26.9879 126.754 27.1249L121.612 33.9524H126.945V35.9709H118.584V34.8772C118.591 34.7288 118.62 34.5822 118.672 34.4429C118.731 34.2729 118.82 34.115 118.934 33.9765L124.116 27.0766H118.895V25.0662H127.088V26.1518Z" fill="#1D1D1D"/>
<path d="M137.632 35.9712H136.47C136.269 35.9794 136.07 35.9408 135.888 35.8586C135.807 35.809 135.737 35.7436 135.682 35.6661C135.628 35.5888 135.589 35.5011 135.568 35.4082L135.338 34.6041C135.084 34.836 134.817 35.0534 134.54 35.2555C134.289 35.437 134.022 35.5958 133.743 35.7299C133.455 35.8574 133.153 35.9517 132.843 36.0114C132.496 36.0791 132.143 36.1114 131.79 36.1079C131.361 36.1143 130.933 36.0518 130.523 35.9229C130.155 35.8086 129.816 35.6167 129.527 35.36C129.249 35.1018 129.028 34.7864 128.882 34.4352C128.721 34.0259 128.642 33.5886 128.65 33.1485C128.656 32.7209 128.766 32.3013 128.969 31.9261C129.232 31.4766 129.601 31.1005 130.045 30.8325C130.661 30.4616 131.331 30.1902 132.029 30.0282C133.044 29.7965 134.082 29.6885 135.122 29.7066V29.0713C135.163 28.4967 135 27.9261 134.66 27.463C134.491 27.2802 134.284 27.1377 134.054 27.0459C133.823 26.9541 133.575 26.9153 133.328 26.9322C132.972 26.9248 132.617 26.9764 132.277 27.085C132.021 27.1702 131.775 27.2834 131.543 27.4227L130.97 27.7524C130.793 27.8561 130.592 27.909 130.388 27.9052C130.226 27.9073 130.068 27.8595 129.933 27.7685C129.813 27.673 129.71 27.5558 129.63 27.4227L129.16 26.6186C130.379 25.475 131.992 24.8574 133.656 24.8976C134.234 24.8876 134.809 24.9942 135.345 25.2112C135.822 25.4069 136.251 25.703 136.605 26.0797C136.958 26.4648 137.23 26.9193 137.402 27.4147C137.582 27.9617 137.671 28.5351 137.664 29.1115L137.632 35.9712ZM132.58 34.3628C132.827 34.3661 133.073 34.3391 133.313 34.2823C133.534 34.2369 133.747 34.1639 133.951 34.0652C134.156 33.966 134.352 33.8447 134.533 33.7034C134.731 33.5461 134.92 33.377 135.098 33.1968V31.3632C134.46 31.3535 133.823 31.402 133.193 31.5079C132.77 31.5768 132.358 31.7011 131.966 31.8779C131.704 31.9884 131.478 32.1693 131.312 32.4006C131.181 32.5919 131.112 32.8194 131.113 33.052C131.095 33.239 131.122 33.4277 131.194 33.6016C131.264 33.7754 131.376 33.9291 131.52 34.0492C131.833 34.2588 132.204 34.3603 132.58 34.3387V34.3628Z" fill="#1D1D1D"/>
<path d="M18.4116 11.1218C19.676 11.1166 20.8996 10.6692 21.8739 9.85612C22.8482 9.04294 23.5131 7.9142 23.7553 6.66205C23.9975 5.4099 23.8022 4.11174 23.2024 2.98859C22.6027 1.86544 21.6357 0.986741 20.466 0.502086C19.2964 0.0174298 17.9964 -0.0432192 16.7874 0.330465C15.5784 0.704149 14.5352 1.48906 13.8352 2.55158C13.1354 3.61409 12.822 4.88852 12.9487 6.15788C13.0755 7.42724 13.6342 8.61307 14.53 9.51347C15.0394 10.0273 15.6448 10.4341 16.311 10.7101C16.9774 10.9863 17.6913 11.1262 18.4116 11.1218ZM56.6695 12.8669C54.7708 12.8543 52.9535 12.0877 51.6109 10.7331C50.2684 9.3785 49.5086 7.54491 49.4961 5.62928C49.4961 4.51591 49.1688 3.42754 48.5558 2.50182C47.9427 1.57609 47.0714 0.854571 46.052 0.428506C45.0324 0.00243891 43.9106 -0.109039 42.8284 0.108167C41.7461 0.325374 40.752 0.86151 39.9716 1.64878C39.1914 2.43605 38.66 3.43909 38.4448 4.53106C38.2295 5.62303 38.34 6.75489 38.7623 7.7835C39.1846 8.81212 39.8997 9.69129 40.8171 10.3099C41.7347 10.9284 42.8133 11.2585 43.9168 11.2585C44.9224 11.1514 45.9389 11.2589 46.9007 11.5738C47.8624 11.8887 48.7478 12.4042 49.4993 13.0866C50.2509 13.7691 50.8519 14.6033 51.2632 15.5352C51.6746 16.4672 51.8872 17.476 51.8872 18.4962C51.8872 19.5163 51.6746 20.5252 51.2632 21.4571C50.8519 22.389 50.2509 23.2233 49.4993 23.9058C48.7478 24.5883 47.8624 25.1036 46.9007 25.4186C45.9389 25.7335 44.9224 25.8409 43.9168 25.7338C42.8133 25.7338 41.7347 26.064 40.8171 26.6826C39.8997 27.301 39.1846 28.1803 38.7623 29.2089C38.34 30.2375 38.2295 31.3694 38.4448 32.4613C38.66 33.5533 39.1914 34.5563 39.9716 35.3436C40.752 36.1309 41.7461 36.667 42.8284 36.8842C43.9106 37.1014 45.0324 36.99 46.052 36.5639C47.0714 36.1378 47.9427 35.4163 48.5558 34.4905C49.1688 33.5648 49.4961 32.4765 49.4961 31.3631C49.5086 29.4474 50.2684 27.6139 51.6109 26.2593C52.9535 24.9047 54.7708 24.1381 56.6695 24.1255C58.1491 24.1255 59.5682 23.5324 60.6145 22.4767C61.6609 21.421 62.2487 19.9892 62.2487 18.4962C62.2487 17.0033 61.6609 15.5714 60.6145 14.5157C59.5682 13.46 58.1491 12.8669 56.6695 12.8669ZM31.1642 12.8669C29.6845 12.8669 28.2654 13.46 27.2191 14.5157C26.1727 15.5714 25.5849 17.0033 25.5849 18.4962C25.5849 20.4264 24.8249 22.2775 23.4723 23.6424C22.1195 25.0072 20.2847 25.774 18.3718 25.774C16.4587 25.774 14.6239 25.0072 13.2713 23.6424C11.9185 22.2775 11.1585 20.4264 11.1585 18.4962C11.1585 17.3828 10.8314 16.2944 10.2183 15.3687C9.60521 14.443 8.73385 13.7215 7.71436 13.2954C6.69488 12.8694 5.57308 12.7579 4.49081 12.9751C3.40853 13.1923 2.41441 13.7285 1.63413 14.5157C0.853858 15.3029 0.322484 16.306 0.107207 17.398C-0.108071 18.49 0.00241722 19.6218 0.424699 20.6504C0.84698 21.679 1.56209 22.5582 2.4796 23.1768C3.3971 23.7953 4.47579 24.1255 5.57927 24.1255C7.4917 24.1169 9.3294 24.8741 10.6891 26.231C12.0489 27.5879 12.8197 29.4335 12.8324 31.3631C12.8324 32.8561 13.4202 34.2879 14.4665 35.3436C15.5127 36.3992 16.9318 36.9924 18.4116 36.9924C19.8913 36.9924 21.3104 36.3992 22.3567 35.3436C23.4031 34.2879 23.9909 32.8561 23.9909 31.3631C24.0034 29.4474 24.7632 27.6139 26.1057 26.2593C27.4483 24.9047 29.2656 24.1381 31.1642 24.1255C32.6439 24.1255 34.063 23.5324 35.1093 22.4767C36.1556 21.421 36.7435 19.9892 36.7435 18.4962C36.7435 17.0033 36.1556 15.5714 35.1093 14.5157C34.063 13.46 32.6439 12.8669 31.1642 12.8669Z" fill="url(#paint0_linear_89_3354)"/>
</g>
<defs>
<linearGradient id="paint0_linear_89_3354" x1="61.34" y1="18.4881" x2="-6.46398" y2="18.4881" gradientUnits="userSpaceOnUse">
<stop stop-color="#A92345"/>
<stop offset="0.11" stop-color="#8C2753"/>
<stop offset="0.3" stop-color="#612C68"/>
<stop offset="0.44" stop-color="#472F75"/>
<stop offset="0.53" stop-color="#3D307A"/>
<stop offset="0.62" stop-color="#343E84"/>
<stop offset="0.81" stop-color="#1D619E"/>
<stop offset="1" stop-color="#008EBF"/>
</linearGradient>
<clipPath id="clip0_89_3354">
<rect width="138" height="37" fill="white"/>
</clipPath>
</defs>
</svg>
