<svg width="21" height="20" viewBox="0 0 21 20" fill="none" xmlns="http://www.w3.org/2000/svg">
<path d="M3.81818 1.79524C3.81818 2.77136 2.96345 3.56266 1.90909 3.56266C0.854729 3.56266 0 2.77136 0 1.79524C0 0.819127 0.854729 0.0278282 1.90909 0.0278282C2.96345 0.0278282 3.81818 0.819127 3.81818 1.79524Z" fill="#F5F5F5"/>
<path d="M21 1.79524C21 2.77136 20.1453 3.56266 19.0909 3.56266C18.0365 3.56266 17.1818 2.77136 17.1818 1.79524C17.1818 0.819127 18.0365 0.0278282 19.0909 0.0278282C20.1453 0.0278282 21 0.819127 21 1.79524Z" fill="#F5F5F5"/>
<path d="M12.7273 1.79524C12.7273 2.77136 11.8725 3.56266 10.8182 3.56266C9.76382 3.56266 8.90909 2.77136 8.90909 1.79524C8.90909 0.819127 9.76382 0.0278282 10.8182 0.0278282C11.8725 0.0278282 12.7273 0.819127 12.7273 1.79524Z" fill="#F5F5F5"/>
<path d="M3.81818 10.0432C3.81818 11.0193 2.96345 11.8106 1.90909 11.8106C0.854729 11.8106 0 11.0193 0 10.0432C0 9.06706 0.854729 8.27576 1.90909 8.27576C2.96345 8.27576 3.81818 9.06706 3.81818 10.0432Z" fill="#F5F5F5"/>
<path d="M21 10.0432C21 11.0193 20.1453 11.8106 19.0909 11.8106C18.0365 11.8106 17.1818 11.0193 17.1818 10.0432C17.1818 9.06706 18.0365 8.27576 19.0909 8.27576C20.1453 8.27576 21 9.06706 21 10.0432Z" fill="#F5F5F5"/>
<path d="M12.7273 10.0432C12.7273 11.0193 11.8725 11.8106 10.8182 11.8106C9.76382 11.8106 8.90909 11.0193 8.90909 10.0432C8.90909 9.06706 9.76382 8.27576 10.8182 8.27576C11.8725 8.27576 12.7273 9.06706 12.7273 10.0432Z" fill="#F5F5F5"/>
<path d="M3.81818 17.702C3.81818 18.6781 2.96345 19.4694 1.90909 19.4694C0.854729 19.4694 0 18.6781 0 17.702C0 16.7259 0.854729 15.9346 1.90909 15.9346C2.96345 15.9346 3.81818 16.7259 3.81818 17.702Z" fill="#F5F5F5"/>
<path d="M21 17.702C21 18.6781 20.1453 19.4694 19.0909 19.4694C18.0365 19.4694 17.1818 18.6781 17.1818 17.702C17.1818 16.7259 18.0365 15.9346 19.0909 15.9346C20.1453 15.9346 21 16.7259 21 17.702Z" fill="#F5F5F5"/>
<path d="M12.7273 17.702C12.7273 18.6781 11.8725 19.4694 10.8182 19.4694C9.76382 19.4694 8.90909 18.6781 8.90909 17.702C8.90909 16.7259 9.76382 15.9346 10.8182 15.9346C11.8725 15.9346 12.7273 16.7259 12.7273 17.702Z" fill="#F5F5F5"/>
</svg>
